<?xml version="1.0" encoding="UTF-8"?>
<svg width="60px" height="70px" viewBox="0 0 60 70" version="1.1" xmlns="http://www.w3.org/2000/svg" xmlns:xlink="http://www.w3.org/1999/xlink">
    <!-- Generator: Sketch 51.3 (57544) - http://www.bohemiancoding.com/sketch -->
    <title>doctor-stethoscope</title>
    <desc>Created with Sketch.</desc>
    <defs></defs>
    <g id="Capability-&amp;-Nav-Sandbox" stroke="none" stroke-width="1" fill="none" fill-rule="evenodd">
        <g id="Side-Bar---Expand-2" transform="translate(-484.000000, -944.000000)" fill="#768692">
            <g id="Prescribing" transform="translate(364.000000, 834.000000)">
                <path d="M180,117.561609 C180,113.393329 176.606671,110 172.436191,110 C168.26615,110 164.874582,113.393329 164.874582,117.561609 C164.874582,121.125242 167.353019,124.112832 170.675937,124.908907 L170.675937,160.69486 C170.675937,169.16432 163.786305,176.053952 155.316846,176.053952 C146.847386,176.053952 139.959074,169.16432 139.959074,160.69486 L139.959074,158.050959 C149.1696,157.162031 156.396321,149.380391 156.396321,139.939711 L156.396321,125.166344 C156.396321,119.58326 152.609576,114.871501 147.471396,113.454938 L147.471396,111.760253 C147.471396,110.787273 146.684123,110 145.711142,110 L143.498504,110 C142.525964,110 141.73825,110.787273 141.73825,111.760253 L141.73825,117.795283 C141.73825,118.766502 142.525964,119.555536 143.498504,119.555536 L145.711142,119.555536 C146.684123,119.555536 147.471396,118.766502 147.471396,117.795283 L147.471396,117.164672 C150.635892,118.445256 152.875814,121.548143 152.875814,125.166344 L152.875814,137.330136 C152.088541,139.086869 147.476677,148.40037 138.198821,148.40037 C128.95925,148.40037 124.311301,139.076747 123.520507,137.328375 L123.520507,125.166344 C123.520507,121.150766 126.277944,117.766238 129.99956,116.80866 L129.99956,117.795283 C129.99956,118.766502 130.788594,119.555536 131.759813,119.555536 L133.973772,119.555536 C134.944992,119.555536 135.734026,118.766502 135.734026,117.795283 L135.734026,111.760253 C135.734026,110.787273 134.944992,110 133.973772,110 L131.759813,110 C130.788594,110 129.99956,110.787273 129.99956,111.760253 L129.99956,113.210702 C124.323183,114.230329 120,119.201725 120,125.166344 L120,139.939711 C120,149.380391 127.226721,157.162031 136.438567,158.050959 L136.438567,160.69486 C136.438567,171.104999 144.908467,179.574459 155.318606,179.574459 C165.726985,179.574459 174.196444,171.104999 174.196444,160.69486 L174.196444,124.908907 C177.519363,124.112832 180,121.125242 180,117.561609 Z M124.569178,145.376694 C127.491199,148.689491 131.94376,151.920877 138.198821,151.920877 C144.452561,151.920877 148.906883,148.689491 151.827143,145.376694 C149.662911,150.784633 144.370269,154.618025 138.198821,154.618025 C132.026052,154.618025 126.73341,150.784633 124.569178,145.376694 Z" id="doctor-stethoscope"></path>
            </g>
        </g>
    </g>
</svg>