<?xml version="1.0" encoding="UTF-8"?>
<svg width="78px" height="58px" viewBox="0 0 78 58" version="1.1" xmlns="http://www.w3.org/2000/svg" xmlns:xlink="http://www.w3.org/1999/xlink">
    <!-- Generator: Sketch 51.3 (57544) - http://www.bohemiancoding.com/sketch -->
    <title>family</title>
    <desc>Created with Sketch.</desc>
    <defs>
        <polygon id="path-1" points="0 0 27.9571064 0 27.9571064 29.8507792 0 29.8507792"></polygon>
    </defs>
    <g id="Capability-&amp;-Nav-Sandbox" stroke="none" stroke-width="1" fill="none" fill-rule="evenodd">
        <g id="Side-Bar---Expand-2" transform="translate(-795.000000, -942.000000)">
            <g id="PopHealth" transform="translate(684.000000, 834.000000)">
                <g id="family" transform="translate(111.000000, 108.000000)">
                    <g id="Group-3" transform="translate(0.000000, 28.000000)">
                        <mask id="mask-2" fill="white">
                            <use xlink:href="#path-1"></use>
                        </mask>
                        <g id="Clip-2"></g>
                        <path d="M27.9690213,3.52012987 C25.0383546,1.32019481 21.3862411,0 17.4116312,0 C7.79591489,0 0,7.64688312 0,17.0805195 L0,27.615974 C0,28.851039 1.01931915,29.8507792 2.27832624,29.8507792 L20.6524823,29.8507792 L20.6524823,19.0772727 C20.6524823,12.8579221 23.4985532,7.28532468 27.9690213,3.52012987 Z" id="Fill-1" fill="#768692" mask="url(#mask-2)"></path>
                    </g>
                    <path d="M16.4997116,23 C22.8521695,23 28,17.8515726 28,11.5000961 C28,5.14785065 22.8521695,0 16.4997116,0 C10.1480228,0 5,5.14785065 5,11.5000961 C5,17.8515726 10.1480228,23 16.4997116,23 Z" id="Fill-4" fill="#768692"></path>
                    <path d="M41.6549372,30 C33.0100397,30 26,37.1152856 26,45.8909786 L26,54.6955972 C26,55.9691252 27.0156265,57 28.2695256,57 L46.254546,57 L46.254546,47.5552026 C46.254546,42.2194414 48.4686594,37.4071525 52,33.9852992 C49.240868,31.5121639 45.6262112,30 41.6549372,30 Z" id="Fill-5" fill="#768692"></path>
                    <path d="M34.8135295,27.2262141 C36.4535769,28.3384225 38.3990662,29 40.4988327,29 C42.5993774,29 44.5448667,28.3384225 46.186276,27.2262141 C49.077273,25.2667544 51,21.8753034 51,18.0004076 C51,11.9241259 46.299698,7 40.4988327,7 C34.700302,7 30,11.9241259 30,18.0004076 C30,21.8753034 31.922727,25.2667544 34.8135295,27.2262141 Z" id="Fill-6" fill="#768692"></path>
                    <path d="M64.4994983,35 C57.0430569,35 51,41.0616661 51,48.5380295 L51,55.6914072 C51,56.9672508 52.030087,58 53.302394,58 L75.697606,58 C76.9691102,58 78,56.9672508 78,55.6914072 L78,48.5380295 C78,41.0616661 71.954535,35 64.4994983,35 Z" id="Fill-7" fill="#768692"></path>
                    <path d="M58.3719727,29.9715216 C59.9178442,31.2202987 61.8582728,32 63.9999019,32 C66.143296,32 68.0837246,31.2202987 69.6295961,29.9715216 C71.6694484,28.32152 73,25.8296528 73,23.0008825 C73,18.0293063 68.9714781,14 63.9999019,14 C59.0300908,14 55,18.0293063 55,23.0008825 C55,25.8296528 56.3305516,28.32152 58.3719727,29.9715216 Z" id="Fill-8" fill="#768692"></path>
                </g>
            </g>
        </g>
    </g>
</svg>