<?xml version="1.0" encoding="UTF-8"?>
<svg width="63px" height="55px" viewBox="0 0 63 55" version="1.1" xmlns="http://www.w3.org/2000/svg" xmlns:xlink="http://www.w3.org/1999/xlink">
    <!-- Generator: Sketch 51.3 (57544) - http://www.bohemiancoding.com/sketch -->
    <title>heartbeat</title>
    <desc>Created with Sketch.</desc>
    <defs></defs>
    <g id="Capability-&amp;-Nav-Sandbox" stroke="none" stroke-width="1" fill="none" fill-rule="evenodd">
        <g id="Side-Bar---Expand-2" transform="translate(-162.000000, -945.000000)" fill="#768692" fill-rule="nonzero">
            <g id="AppointmentMangement" transform="translate(44.000000, 834.000000)">
                <g id="heartbeat" transform="translate(118.000000, 111.000000)">
                    <path d="M46.265625,0 C38.8017246,0 34.0107715,5.26304474 31.5,10.0030672 C28.9892285,5.26291947 24.1982754,0 16.734375,0 C7.26431836,0 0,7.82290993 0,18.1984191 C0,20.9056075 0.532423828,23.4049649 1.51273828,25.806608 L15.5934844,25.806608 L18.7747383,19.3287736 C19.4020312,18.05523 21.4495312,18.05523 22.0768242,19.3287736 L27.8085937,31 L29.848957,26.8453867 C30.47625,25.5718431 32.52375,25.5718431 33.151043,26.8453867 L35.1914062,31 L40.9231758,19.3288989 C41.5504687,18.0553553 43.5979687,18.0553553 44.2252617,19.3288989 L47.4065156,25.806608 L61.4872617,25.806608 C62.4675762,23.4049649 63,20.9056075 63,18.1984191 C63,7.82290993 55.7356816,0 46.265625,0 Z" id="Shape"></path>
                    <path d="M46.7394215,29.1106759 C46.04127,29.1106759 45.4044095,28.7151856 45.0913222,28.0885407 L43.0545968,24 L37.3330467,35.4854904 C37.0199595,36.1121354 36.3830989,36.5076256 35.6849475,36.5076256 C34.986796,36.5076256 34.3499355,36.1121354 34.0368482,35.4854904 L32.0001228,31.3969498 L29.9633974,35.4854904 C29.3372229,36.7387803 27.2933735,36.7387803 26.6671989,35.4854904 L20.9456488,24 L18.9089234,28.0885407 C18.5958361,28.7151856 17.9589756,29.1106759 17.2608242,29.1106759 L4,29.1106759 C7.79205306,35.0989998 14.6213843,40.7871309 23.1640361,48.0238134 C25.5623657,50.0553857 28.1137383,52.2171442 30.7927286,54.5485395 C31.1399619,54.8500885 31.569981,55 32,55 C32.430019,55 32.8600381,54.8500885 33.2072714,54.5485395 C35.8863846,52.2171442 38.4376343,50.0555089 40.8359639,48.0238134 C49.3787386,40.7871309 56.2079469,35.0989998 60,29.1106759 L46.7394215,29.1106759 Z" id="Shape"></path>
                </g>
            </g>
        </g>
    </g>
</svg>