<?xml version="1.0" encoding="UTF-8"?>
<svg width="21px" height="16px" viewBox="0 0 21 16" version="1.1" xmlns="http://www.w3.org/2000/svg" xmlns:xlink="http://www.w3.org/1999/xlink">
    <!-- Generator: Sketch 51.2 (57519) - http://www.bohemiancoding.com/sketch -->
    <title>Fill 185</title>
    <desc>Created with Sketch.</desc>
    <defs></defs>
    <g id="Onboarding-Registration" stroke="none" stroke-width="1" fill="none" fill-rule="evenodd">
        <g id="0.02" transform="translate(-873.000000, -598.000000)" fill="#DA291C">
            <g id="InProgress" transform="translate(72.000000, 381.000000)">
                <g id="Row4" transform="translate(0.000000, 198.000000)">
                    <path d="M811.594755,28.8673186 L809.457287,27.0134873 L802,35 L821,35 L813.680011,27 L811.594755,28.8673186 L811.594755,28.8673186 Z M815,26.1754043 L821.931953,34 C821.971647,33.8481458 822,33.6908194 822,33.5246006 L822,20 L815,26.1754043 L815,26.1754043 Z M801,20 L801,33.5256667 C801,33.6915127 801.028259,33.8484863 801.067821,34 L808,26.2182031 L801,20 L801,20 Z M822,19 L802,19 L812,27 L822,19 L822,19 Z" id="Fill-185"></path>
                </g>
            </g>
        </g>
    </g>
</svg>